<svg width="100" height="100" viewBox="0 0 100 100" fill="none" xmlns="http://www.w3.org/2000/svg">
<path fill-rule="evenodd" clip-rule="evenodd" d="M34.5614 37.2749C33.8129 36.5263 33.8129 35.3099 34.5614 34.5614C35.3099 33.8129 36.5263 33.8129 37.2749 34.5614L65.4386 62.7251C66.1871 63.4737 66.1871 64.6901 65.4386 65.4386C64.6901 66.1871 63.4737 66.1871 62.7251 65.4386L34.5614 37.2749Z" fill="black"/>
<path fill-rule="evenodd" clip-rule="evenodd" d="M62.7251 34.5614C63.4737 33.8129 64.6901 33.8129 65.4386 34.5614C66.1871 35.3099 66.1871 36.5263 65.4386 37.2749L37.2749 65.4386C36.5263 66.1871 35.3099 66.1871 34.5614 65.4386C33.8129 64.6901 33.8129 63.4737 34.5614 62.7251L62.7251 34.5614Z" fill="black"/>
</svg>
