<svg width="100" height="100" viewBox="0 0 100 100" fill="none" xmlns="http://www.w3.org/2000/svg">
<path d="M24 77.2222C24 79.285 24.8194 81.2633 26.2781 82.7219C27.7367 84.1806 29.715 85 31.7778 85H67.5555C69.6183 85 71.5966 84.1806 73.0552 82.7219C74.5139 81.2633 75.3333 79.285 75.3333 77.2222V36.5834C75.326 36.0705 75.1163 35.5813 74.75 35.2223L53.8472 15.4862C53.5026 15.17 53.0509 14.9963 52.5833 15.0001H31.7778C29.715 15.0001 27.7367 15.8195 26.2781 17.2781C24.8194 18.7367 24 20.715 24 22.7778V77.2222ZM54.5278 21.4167L68.5277 34.6389H56.4722C56.2132 34.653 55.9541 34.6123 55.7118 34.5195C55.4695 34.4268 55.2495 34.284 55.0661 34.1006C54.8827 33.9172 54.7399 33.6972 54.6472 33.4549C54.5544 33.2126 54.5137 32.9535 54.5278 32.6945V21.4167ZM27.8889 22.7778C27.8889 21.7464 28.2986 20.7573 29.0279 20.028C29.7572 19.2987 30.7464 18.8889 31.7778 18.8889H50.6389V32.6945C50.6257 33.4642 50.7676 34.2286 51.0561 34.9423C51.3446 35.656 51.7738 36.3043 52.3181 36.8486C52.8624 37.3929 53.5107 37.8221 54.2244 38.1106C54.9381 38.3991 55.7025 38.541 56.4722 38.5278H71.4444V77.2222C71.4444 78.2536 71.0347 79.2428 70.3054 79.9721C69.5761 80.7014 68.5869 81.1111 67.5555 81.1111H31.7778C30.7464 81.1111 29.7572 80.7014 29.0279 79.9721C28.2986 79.2428 27.8889 78.2536 27.8889 77.2222V22.7778Z" fill="black"/>
<path d="M34.4 62.3H66.3C66.8304 62.3 67.3391 62.0893 67.7142 61.7143C68.0893 61.3392 68.3 60.8305 68.3 60.3C68.3 59.7696 68.0893 59.2609 67.7142 58.8858C67.3391 58.5108 66.8304 58.3 66.3 58.3H34.4C33.8696 58.3 33.3609 58.5108 32.9858 58.8858C32.6107 59.2609 32.4 59.7696 32.4 60.3C32.4 60.8305 32.6107 61.3392 32.9858 61.7143C33.3609 62.0893 33.8696 62.3 34.4 62.3Z" fill="black"/>
<path d="M34.4 50.3H51.3C51.8304 50.3 52.3391 50.0893 52.7142 49.7143C53.0893 49.3392 53.3 48.8305 53.3 48.3C53.3 47.7696 53.0893 47.2609 52.7142 46.8858C52.3391 46.5108 51.8304 46.3 51.3 46.3H34.4C33.8696 46.3 33.3609 46.5108 32.9858 46.8858C32.6107 47.2609 32.4 47.7696 32.4 48.3C32.4 48.8305 32.6107 49.3392 32.9858 49.7143C33.3609 50.0893 33.8696 50.3 34.4 50.3Z" fill="black"/>
<path d="M34.4 74.3001H66.3C66.8304 74.3001 67.3391 74.0893 67.7142 73.7143C68.0893 73.3392 68.3 72.8305 68.3 72.3001C68.3 71.7696 68.0893 71.2609 67.7142 70.8858C67.3391 70.5108 66.8304 70.3001 66.3 70.3001H34.4C33.8696 70.3001 33.3609 70.5108 32.9858 70.8858C32.6107 71.2609 32.4 71.7696 32.4 72.3001C32.4 72.8305 32.6107 73.3392 32.9858 73.7143C33.3609 74.0893 33.8696 74.3001 34.4 74.3001Z" fill="black"/>
</svg>
