<svg width="100" height="100" viewBox="0 0 100 100" fill="none" xmlns="http://www.w3.org/2000/svg">
<path d="M50.1496 26.6667C47.4461 26.6667 44.8032 27.4649 42.5553 28.9605C40.3074 30.4562 38.5554 32.5819 37.5208 35.069C36.4862 37.5561 36.2155 40.2929 36.743 42.9332C37.2704 45.5735 38.5723 47.9987 40.4839 49.9023C42.3956 51.8058 44.8313 53.1022 47.4828 53.6273C50.1344 54.1525 52.8828 53.883 55.3806 52.8528C57.8783 51.8226 60.0132 50.078 61.5152 47.8397C63.0172 45.6014 63.8189 42.9698 63.8189 40.2778C63.8189 36.6679 62.3787 33.2058 59.8152 30.6533C57.2517 28.1007 53.7749 26.6667 50.1496 26.6667ZM50.1496 50C48.2185 50 46.3308 49.4298 44.7251 48.3615C43.1195 47.2932 41.868 45.7748 41.129 43.9983C40.39 42.2218 40.1967 40.267 40.5734 38.3811C40.9502 36.4951 41.8801 34.7628 43.2456 33.4031C44.611 32.0434 46.3508 31.1175 48.2448 30.7424C50.1387 30.3672 52.1019 30.5598 53.886 31.2956C55.6701 32.0315 57.195 33.2776 58.2679 34.8764C59.3407 36.4752 59.9133 38.3549 59.9133 40.2778C59.9104 42.8554 58.8808 45.3265 57.0503 47.1492C55.2199 48.9718 52.7382 49.997 50.1496 50ZM50.1496 15C43.1977 15 36.4018 17.0527 30.6215 20.8986C24.8412 24.7444 20.336 30.2107 17.6756 36.6061C15.0152 43.0015 14.3192 50.0388 15.6754 56.8281C17.0317 63.6175 20.3793 69.8539 25.2951 74.7487C30.2108 79.6436 36.4739 82.977 43.2922 84.3275C50.1106 85.6779 57.178 84.9848 63.6007 82.3358C70.0235 79.6867 75.5131 75.2007 79.3754 69.4449C83.2377 63.6892 85.2991 56.9223 85.2991 50C85.2991 40.7174 81.5959 31.815 75.0041 25.2513C68.4122 18.6875 59.4718 15 50.1496 15ZM30.622 74.2476V69.4444C30.6244 67.3824 31.4481 65.4054 32.9125 63.9473C34.3768 62.4892 36.3622 61.669 38.4331 61.6667H61.8661C63.937 61.669 65.9224 62.4892 67.3867 63.9473C68.851 65.4054 69.6747 67.3824 69.6771 69.4444V74.2476C64.1462 78.689 57.2549 81.1111 50.1496 81.1111C43.0442 81.1111 36.153 78.689 30.622 74.2476ZM73.5826 70.5092V69.4444C73.5826 66.3502 72.3482 63.3828 70.1509 61.1949C67.9537 59.0069 64.9735 57.7778 61.8661 57.7778H38.4331C35.3256 57.7778 32.3455 59.0069 30.1482 61.1949C27.951 63.3828 26.7165 66.3502 26.7165 69.4444V70.5092C22.7394 66.0188 20.148 60.481 19.2533 54.5604C18.3586 48.6398 19.1987 42.5879 21.6726 37.1309C24.1465 31.6739 28.1492 27.0436 33.2004 23.7956C38.2516 20.5477 44.1367 18.82 50.1496 18.82C56.1624 18.82 62.0475 20.5477 67.0988 23.7956C72.15 27.0436 76.1527 31.6739 78.6266 37.1309C81.1005 42.5879 81.9405 48.6398 81.0458 54.5604C80.1511 60.481 77.5597 66.0188 73.5826 70.5092Z" fill="black"/>
</svg>
